<mxfile host="app.diagrams.net" modified="2023-09-15T22:12:00.075Z" agent="Mozilla/5.0 (Windows NT 10.0; Win64; x64) AppleWebKit/537.36 (KHTML, like Gecko) Chrome/116.0.0.0 Safari/537.36" etag="AGThTgLQV7_4dQM8U3N2" version="21.7.5" type="device">
  <diagram name="PÃ¡gina-1" id="g46F6fp76NOcQ1V7lUYL">
    <mxGraphModel dx="1130" dy="631" grid="1" gridSize="10" guides="1" tooltips="1" connect="1" arrows="1" fold="1" page="1" pageScale="1" pageWidth="827" pageHeight="1169" math="0" shadow="0">
      <root>
        <mxCell id="0" />
        <mxCell id="1" parent="0" />
        <mxCell id="ErBYjf3i4Nye9MJlUp7t-2" value="" style="shape=image;verticalLabelPosition=bottom;labelBackgroundColor=default;verticalAlign=top;aspect=fixed;imageAspect=0;image=data:image/png,iVBORw0KGgoAAAANSUhEUgAAAFgAAABTCAYAAAAbUsD3AAAAAXNSR0IArs4c6QAAAARnQU1BAACxjwv8YQUAAAAJcEhZcwAADsMAAA7DAcdvqGQAAAcjSURBVHhe7ZzZThRbFIYXKCqCE6KoiDiCBCQyqDEm3OiFXBhfgwfgjUh8AWPihQY1DpAwozgwqeAAghODIuI559un6gT6ANW7qneT2r2/pEPbTayuv1b9a9i7yfrrH8RhjGzvp8MQTmDDOIEN4wQ2jBPYME5gwziBDeMENowT2DBOYMM4gQ1jzSzi9+/f8vPnT5mZmZGlpSX58+eP9054srOzZcuWLZKfny/btm1T/9bFCoF//folX79+lffv38vIyIjMz88rkaOyefNm2bNnj5w4cUIOHjwoO3bskKysLO/d5Ii9wERuT0+PPH78WF68eCELCwspiV4fREbY+vp6uXr1quzatUs2bdrkvRtMrAUmUonamzdvyrNnz2Rqako7wpIBaygvL5fLly/LxYsXZfv27d47wcQ2yRG5k5OT0tbWJr29vTI9PW1EXOCOmJiYkKdPnyo70iG2AhO9r169klu3bsn379+9V83B8bhDdO0ntgJ3dnbKgwcPUu65a4GThkmcsRMYa3j+/Ln09fXJ69ev1YmbsoZEOJZuytJKctSZ/mOj+PHjh9y9e1e6u7tVgksXW7dulWPHjklzc7Ps3bvXezUYLYE5IaJmfHxc3Za6VzMq3KKzs7Py8OFD9TNdkQtGBSZz3rlzR92WiIzvpVtc4JhcWJoKxLZCYOyAEqWlpUUV8nNzc947mUVYgQOTHOWJbwuZKm4UAgUmqXz48EG7wHb8S6DAeB6lkSMcSdXB6SjkbSV2jUbccAIbxglsmMA6eGxsTFpbW+XevXvy5csX79VwcCh/GYa6UmdwvdHweY8cOSJNTU1qlSNZjAvMf0/HxZoWg2rWt3bu3KkeCB0XcnJyZP/+/dLY2Ch5eXneq8GkJYKJ1OrqarXsUlVVpZZdED3MIuJGwvIRkazTohsVmA9TXFwsly5dkuPHj8uhQ4dk9+7dsYrcqBgTmKuMqKxhNTQ0KEtgrvHp0yf1oENcXFxM68DGFAQM9nH06FHJzc1dcU7GBMZrr1y5ItevX1eWwARseHhYzXGZyrGehuBxs4nVIHhqamrk2rVr6o4l3/gYOzsOeObMGbXkTaTevn1bbty4oS6UP9uwIXqBzS6sD96/f18Nx5aTcoG5IfxlbsoaBuNPnjyR/v5+effunfoA/tqWLQJzzkwaWRRNnNukXGAS2+HDh5W43Drfvn2TR48eqXGnzRM5gopSLjFoUiowVxLvpRxjKO3vXWA/AbeRzVAbE1iIvJyURzCee+HCBZXYPn78KAMDA8qDA3Jp7CGgzp49uyLBQUoFpsalVGGjHFZBMmNLU7rXz9INd+2BAwdUnZ9Y46dUYA5CcuOAJDdKPB62Ry/nTc7BJhLLzpQIjIBEKDVgRUWFej46OqrEpaGwFc6bB4uhbHFdjZRFMJ6LyWMP8PLlS3nz5o16bisEEpZA9JaUlHivriQlAnOgsrIydRCeUw8i7ufPn73fsBOGP0QuFrHWltaUCMyBsAYiGEsYHBxUCc52eyCRMyXct2+fCqzViCwwo0jMnSvJwIOtpOzZZfZgMwiKwIxfCwsLvVf/T2SB6dbOnz+vpvw0FtgCwxzbN6lQ7xNUiMsEbS0iCcxtQu3rNxaMIYeGhlQU01zYTEFBgVRWVqqSdL2JYCSBuXIYPAmO5wxz6Nz8ss1WEBTfxR6wifWIJHBRUZGcPHnyv683UfeyQdD2jSqISr7BIoJWZyIJTFvMbQIM05mYbeTm7HSBsKzWJENogfFc6l66NyByiWCi11Z78Ds3xKV7S4ZQAiMg3QvDDbyXioHOjX3ENoP3YofU+5x7MoQSmAOxHOQ3FnRt7Hy3feaL95LQGQckjiXXQltgGgtqX3yITIqo7e3t6qfNlQMgMDPf9RqLRLQFpms7ffq0EpdIZu7ANy0ZT9oMgUXeOXXqlAqwZNEWmI7t3LlzyouIWmpfLML26oGGAktcb7CzGloCE7EsjdTV1SmBqRr8xsJ2qHvZiqC7K0lLYMydxgKbQFTqXvYD4L02+y/nhsBMDI0JjKCUZvgvkUxJhsB8y912uGuxB/IOo1kdkhaYK1daWqqKbMSmsUDgTPiCDB0r564bvZCUwGRQOheuIhkUUVktRuBMgNqXsjQMSQmMJTBzwINpLN6+fauqh0wozbAFujZKtDAECsxOFaKW5XiMHlGpexmsh/n7CXGCxoLzprEIGkuuRaDA+A4DHR7UfyS1rq4u66OXPMP50rkxXA9LoMDcGlQOHAx7YDsUpZntjQX2QK1PaabzpZdEAgXmQAw2qAXxXsTNlL1m2AMi65Zmywnc4b6cjo4OtdeXP/5mO5RlLObW1tYmPTlbDS2BqX1ZuciE2peKifIMi4zSpWoJzF86wR4y4cvh2AKRS4kaBS2BHfpEuzyOQJzAhnECG8YJbBgnsGGcwIZxAhvGCWwYJ7BRRP4Gp0WPsGAfo7UAAAAASUVORK5CYII=;" parent="1" vertex="1">
          <mxGeometry x="220" y="40" width="88" height="83" as="geometry" />
        </mxCell>
        <mxCell id="ErBYjf3i4Nye9MJlUp7t-3" value="" style="endArrow=none;dashed=1;html=1;rounded=0;strokeWidth=3;strokeColor=#8A8A8A;" parent="1" edge="1">
          <mxGeometry width="50" height="50" relative="1" as="geometry">
            <mxPoint x="260" y="600" as="sourcePoint" />
            <mxPoint x="260" y="150" as="targetPoint" />
          </mxGeometry>
        </mxCell>
        <mxCell id="ErBYjf3i4Nye9MJlUp7t-8" value="" style="endArrow=none;dashed=1;html=1;rounded=0;strokeWidth=3;strokeColor=#8A8A8A;" parent="1" edge="1">
          <mxGeometry width="50" height="50" relative="1" as="geometry">
            <mxPoint x="360" y="590" as="sourcePoint" />
            <mxPoint x="360" y="260" as="targetPoint" />
          </mxGeometry>
        </mxCell>
        <mxCell id="ErBYjf3i4Nye9MJlUp7t-9" value="" style="shape=note;size=20;whiteSpace=wrap;html=1;strokeWidth=2;" parent="1" vertex="1">
          <mxGeometry x="440" y="270" width="50" height="70" as="geometry" />
        </mxCell>
        <mxCell id="ErBYjf3i4Nye9MJlUp7t-11" value="&lt;span style=&quot;font-size: 16px;&quot;&gt;&lt;b&gt;File1&lt;/b&gt;&lt;/span&gt;" style="text;strokeColor=none;fillColor=none;align=left;verticalAlign=middle;spacingLeft=4;spacingRight=4;overflow=hidden;points=[[0,0.5],[1,0.5]];portConstraint=eastwest;rotatable=0;whiteSpace=wrap;html=1;" parent="1" vertex="1">
          <mxGeometry x="440" y="347" width="60" height="30" as="geometry" />
        </mxCell>
        <mxCell id="ErBYjf3i4Nye9MJlUp7t-142" value="" style="endArrow=none;dashed=1;html=1;rounded=0;strokeWidth=3;strokeColor=#8A8A8A;" parent="1" edge="1">
          <mxGeometry width="50" height="50" relative="1" as="geometry">
            <mxPoint x="360" y="418" as="sourcePoint" />
            <mxPoint x="410" y="420" as="targetPoint" />
            <Array as="points">
              <mxPoint x="420" y="418" />
            </Array>
          </mxGeometry>
        </mxCell>
        <mxCell id="ErBYjf3i4Nye9MJlUp7t-143" value="" style="endArrow=none;dashed=1;html=1;rounded=0;strokeWidth=3;strokeColor=#8A8A8A;" parent="1" edge="1">
          <mxGeometry width="50" height="50" relative="1" as="geometry">
            <mxPoint x="360" y="294.5" as="sourcePoint" />
            <mxPoint x="420" y="295" as="targetPoint" />
          </mxGeometry>
        </mxCell>
        <mxCell id="ErBYjf3i4Nye9MJlUp7t-144" value="" style="endArrow=none;dashed=1;html=1;rounded=0;strokeWidth=3;strokeColor=#8A8A8A;" parent="1" edge="1">
          <mxGeometry width="50" height="50" relative="1" as="geometry">
            <mxPoint x="268" y="190" as="sourcePoint" />
            <mxPoint x="320" y="190" as="targetPoint" />
          </mxGeometry>
        </mxCell>
        <mxCell id="ErBYjf3i4Nye9MJlUp7t-145" value="" style="endArrow=none;dashed=1;html=1;rounded=0;strokeWidth=3;strokeColor=#8A8A8A;" parent="1" edge="1">
          <mxGeometry width="50" height="50" relative="1" as="geometry">
            <mxPoint x="340" y="600" as="sourcePoint" />
            <mxPoint x="370" y="600" as="targetPoint" />
          </mxGeometry>
        </mxCell>
        <mxCell id="ErBYjf3i4Nye9MJlUp7t-146" value="" style="endArrow=none;dashed=1;html=1;rounded=0;strokeWidth=3;strokeColor=#8A8A8A;" parent="1" edge="1">
          <mxGeometry width="50" height="50" relative="1" as="geometry">
            <mxPoint x="284" y="600" as="sourcePoint" />
            <mxPoint x="244" y="600" as="targetPoint" />
          </mxGeometry>
        </mxCell>
        <mxCell id="4y0sTuT5TSOrMaGEHuTy-39" value="" style="shape=image;verticalLabelPosition=bottom;labelBackgroundColor=default;verticalAlign=top;aspect=fixed;imageAspect=0;image=data:image/png,iVBORw0KGgoAAAANSUhEUgAAAFgAAABTCAYAAAAbUsD3AAAAAXNSR0IArs4c6QAAAARnQU1BAACxjwv8YQUAAAAJcEhZcwAADsMAAA7DAcdvqGQAAAcjSURBVHhe7ZzZThRbFIYXKCqCE6KoiDiCBCQyqDEm3OiFXBhfgwfgjUh8AWPihQY1DpAwozgwqeAAghODIuI559un6gT6ANW7qneT2r2/pEPbTayuv1b9a9i7yfrrH8RhjGzvp8MQTmDDOIEN4wQ2jBPYME5gwziBDeMENowT2DBOYMM4gQ1jzSzi9+/f8vPnT5mZmZGlpSX58+eP9054srOzZcuWLZKfny/btm1T/9bFCoF//folX79+lffv38vIyIjMz88rkaOyefNm2bNnj5w4cUIOHjwoO3bskKysLO/d5Ii9wERuT0+PPH78WF68eCELCwspiV4fREbY+vp6uXr1quzatUs2bdrkvRtMrAUmUonamzdvyrNnz2Rqako7wpIBaygvL5fLly/LxYsXZfv27d47wcQ2yRG5k5OT0tbWJr29vTI9PW1EXOCOmJiYkKdPnyo70iG2AhO9r169klu3bsn379+9V83B8bhDdO0ntgJ3dnbKgwcPUu65a4GThkmcsRMYa3j+/Ln09fXJ69ev1YmbsoZEOJZuytJKctSZ/mOj+PHjh9y9e1e6u7tVgksXW7dulWPHjklzc7Ps3bvXezUYLYE5IaJmfHxc3Za6VzMq3KKzs7Py8OFD9TNdkQtGBSZz3rlzR92WiIzvpVtc4JhcWJoKxLZCYOyAEqWlpUUV8nNzc947mUVYgQOTHOWJbwuZKm4UAgUmqXz48EG7wHb8S6DAeB6lkSMcSdXB6SjkbSV2jUbccAIbxglsmMA6eGxsTFpbW+XevXvy5csX79VwcCh/GYa6UmdwvdHweY8cOSJNTU1qlSNZjAvMf0/HxZoWg2rWt3bu3KkeCB0XcnJyZP/+/dLY2Ch5eXneq8GkJYKJ1OrqarXsUlVVpZZdED3MIuJGwvIRkazTohsVmA9TXFwsly5dkuPHj8uhQ4dk9+7dsYrcqBgTmKuMqKxhNTQ0KEtgrvHp0yf1oENcXFxM68DGFAQM9nH06FHJzc1dcU7GBMZrr1y5ItevX1eWwARseHhYzXGZyrGehuBxs4nVIHhqamrk2rVr6o4l3/gYOzsOeObMGbXkTaTevn1bbty4oS6UP9uwIXqBzS6sD96/f18Nx5aTcoG5IfxlbsoaBuNPnjyR/v5+effunfoA/tqWLQJzzkwaWRRNnNukXGAS2+HDh5W43Drfvn2TR48eqXGnzRM5gopSLjFoUiowVxLvpRxjKO3vXWA/AbeRzVAbE1iIvJyURzCee+HCBZXYPn78KAMDA8qDA3Jp7CGgzp49uyLBQUoFpsalVGGjHFZBMmNLU7rXz9INd+2BAwdUnZ9Y46dUYA5CcuOAJDdKPB62Ry/nTc7BJhLLzpQIjIBEKDVgRUWFej46OqrEpaGwFc6bB4uhbHFdjZRFMJ6LyWMP8PLlS3nz5o16bisEEpZA9JaUlHivriQlAnOgsrIydRCeUw8i7ufPn73fsBOGP0QuFrHWltaUCMyBsAYiGEsYHBxUCc52eyCRMyXct2+fCqzViCwwo0jMnSvJwIOtpOzZZfZgMwiKwIxfCwsLvVf/T2SB6dbOnz+vpvw0FtgCwxzbN6lQ7xNUiMsEbS0iCcxtQu3rNxaMIYeGhlQU01zYTEFBgVRWVqqSdL2JYCSBuXIYPAmO5wxz6Nz8ss1WEBTfxR6wifWIJHBRUZGcPHnyv683UfeyQdD2jSqISr7BIoJWZyIJTFvMbQIM05mYbeTm7HSBsKzWJENogfFc6l66NyByiWCi11Z78Ds3xKV7S4ZQAiMg3QvDDbyXioHOjX3ENoP3YofU+5x7MoQSmAOxHOQ3FnRt7Hy3feaL95LQGQckjiXXQltgGgtqX3yITIqo7e3t6qfNlQMgMDPf9RqLRLQFpms7ffq0EpdIZu7ANy0ZT9oMgUXeOXXqlAqwZNEWmI7t3LlzyouIWmpfLML26oGGAktcb7CzGloCE7EsjdTV1SmBqRr8xsJ2qHvZiqC7K0lLYMydxgKbQFTqXvYD4L02+y/nhsBMDI0JjKCUZvgvkUxJhsB8y912uGuxB/IOo1kdkhaYK1daWqqKbMSmsUDgTPiCDB0r564bvZCUwGRQOheuIhkUUVktRuBMgNqXsjQMSQmMJTBzwINpLN6+fauqh0wozbAFujZKtDAECsxOFaKW5XiMHlGpexmsh/n7CXGCxoLzprEIGkuuRaDA+A4DHR7UfyS1rq4u66OXPMP50rkxXA9LoMDcGlQOHAx7YDsUpZntjQX2QK1PaabzpZdEAgXmQAw2qAXxXsTNlL1m2AMi65Zmywnc4b6cjo4OtdeXP/5mO5RlLObW1tYmPTlbDS2BqX1ZuciE2peKifIMi4zSpWoJzF86wR4y4cvh2AKRS4kaBS2BHfpEuzyOQJzAhnECG8YJbBgnsGGcwIZxAhvGCWwYJ7BRRP4Gp0WPsGAfo7UAAAAASUVORK5CYII=;" parent="1" vertex="1">
          <mxGeometry x="326" y="140" width="88" height="83" as="geometry" />
        </mxCell>
        <mxCell id="DwqmfPwI5ndm6YMXPKgo-6" value="" style="shape=note;size=20;whiteSpace=wrap;html=1;strokeWidth=2;" parent="1" vertex="1">
          <mxGeometry x="540" y="500" width="50" height="70" as="geometry" />
        </mxCell>
        <mxCell id="DwqmfPwI5ndm6YMXPKgo-7" value="" style="endArrow=none;dashed=1;html=1;rounded=0;strokeWidth=3;strokeColor=#8A8A8A;" parent="1" edge="1">
          <mxGeometry width="50" height="50" relative="1" as="geometry">
            <mxPoint x="475" y="544.29" as="sourcePoint" />
            <mxPoint x="535" y="544.29" as="targetPoint" />
          </mxGeometry>
        </mxCell>
        <mxCell id="DwqmfPwI5ndm6YMXPKgo-9" value="" style="endArrow=none;dashed=1;html=1;rounded=0;strokeWidth=3;strokeColor=#8A8A8A;" parent="1" edge="1">
          <mxGeometry width="50" height="50" relative="1" as="geometry">
            <mxPoint x="450" y="600" as="sourcePoint" />
            <mxPoint x="480" y="600" as="targetPoint" />
          </mxGeometry>
        </mxCell>
        <mxCell id="DwqmfPwI5ndm6YMXPKgo-12" value="" style="shape=image;verticalLabelPosition=bottom;labelBackgroundColor=default;verticalAlign=top;aspect=fixed;imageAspect=0;image=data:image/png,iVBORw0KGgoAAAANSUhEUgAAAFgAAABTCAYAAAAbUsD3AAAAAXNSR0IArs4c6QAAAARnQU1BAACxjwv8YQUAAAAJcEhZcwAADsMAAA7DAcdvqGQAAAcjSURBVHhe7ZzZThRbFIYXKCqCE6KoiDiCBCQyqDEm3OiFXBhfgwfgjUh8AWPihQY1DpAwozgwqeAAghODIuI559un6gT6ANW7qneT2r2/pEPbTayuv1b9a9i7yfrrH8RhjGzvp8MQTmDDOIEN4wQ2jBPYME5gwziBDeMENowT2DBOYMM4gQ1jzSzi9+/f8vPnT5mZmZGlpSX58+eP9054srOzZcuWLZKfny/btm1T/9bFCoF//folX79+lffv38vIyIjMz88rkaOyefNm2bNnj5w4cUIOHjwoO3bskKysLO/d5Ii9wERuT0+PPH78WF68eCELCwspiV4fREbY+vp6uXr1quzatUs2bdrkvRtMrAUmUonamzdvyrNnz2Rqako7wpIBaygvL5fLly/LxYsXZfv27d47wcQ2yRG5k5OT0tbWJr29vTI9PW1EXOCOmJiYkKdPnyo70iG2AhO9r169klu3bsn379+9V83B8bhDdO0ntgJ3dnbKgwcPUu65a4GThkmcsRMYa3j+/Ln09fXJ69ev1YmbsoZEOJZuytJKctSZ/mOj+PHjh9y9e1e6u7tVgksXW7dulWPHjklzc7Ps3bvXezUYLYE5IaJmfHxc3Za6VzMq3KKzs7Py8OFD9TNdkQtGBSZz3rlzR92WiIzvpVtc4JhcWJoKxLZCYOyAEqWlpUUV8nNzc947mUVYgQOTHOWJbwuZKm4UAgUmqXz48EG7wHb8S6DAeB6lkSMcSdXB6SjkbSV2jUbccAIbxglsmMA6eGxsTFpbW+XevXvy5csX79VwcCh/GYa6UmdwvdHweY8cOSJNTU1qlSNZjAvMf0/HxZoWg2rWt3bu3KkeCB0XcnJyZP/+/dLY2Ch5eXneq8GkJYKJ1OrqarXsUlVVpZZdED3MIuJGwvIRkazTohsVmA9TXFwsly5dkuPHj8uhQ4dk9+7dsYrcqBgTmKuMqKxhNTQ0KEtgrvHp0yf1oENcXFxM68DGFAQM9nH06FHJzc1dcU7GBMZrr1y5ItevX1eWwARseHhYzXGZyrGehuBxs4nVIHhqamrk2rVr6o4l3/gYOzsOeObMGbXkTaTevn1bbty4oS6UP9uwIXqBzS6sD96/f18Nx5aTcoG5IfxlbsoaBuNPnjyR/v5+effunfoA/tqWLQJzzkwaWRRNnNukXGAS2+HDh5W43Drfvn2TR48eqXGnzRM5gopSLjFoUiowVxLvpRxjKO3vXWA/AbeRzVAbE1iIvJyURzCee+HCBZXYPn78KAMDA8qDA3Jp7CGgzp49uyLBQUoFpsalVGGjHFZBMmNLU7rXz9INd+2BAwdUnZ9Y46dUYA5CcuOAJDdKPB62Ry/nTc7BJhLLzpQIjIBEKDVgRUWFej46OqrEpaGwFc6bB4uhbHFdjZRFMJ6LyWMP8PLlS3nz5o16bisEEpZA9JaUlHivriQlAnOgsrIydRCeUw8i7ufPn73fsBOGP0QuFrHWltaUCMyBsAYiGEsYHBxUCc52eyCRMyXct2+fCqzViCwwo0jMnSvJwIOtpOzZZfZgMwiKwIxfCwsLvVf/T2SB6dbOnz+vpvw0FtgCwxzbN6lQ7xNUiMsEbS0iCcxtQu3rNxaMIYeGhlQU01zYTEFBgVRWVqqSdL2JYCSBuXIYPAmO5wxz6Nz8ss1WEBTfxR6wifWIJHBRUZGcPHnyv683UfeyQdD2jSqISr7BIoJWZyIJTFvMbQIM05mYbeTm7HSBsKzWJENogfFc6l66NyByiWCi11Z78Ds3xKV7S4ZQAiMg3QvDDbyXioHOjX3ENoP3YofU+5x7MoQSmAOxHOQ3FnRt7Hy3feaL95LQGQckjiXXQltgGgtqX3yITIqo7e3t6qfNlQMgMDPf9RqLRLQFpms7ffq0EpdIZu7ANy0ZT9oMgUXeOXXqlAqwZNEWmI7t3LlzyouIWmpfLML26oGGAktcb7CzGloCE7EsjdTV1SmBqRr8xsJ2qHvZiqC7K0lLYMydxgKbQFTqXvYD4L02+y/nhsBMDI0JjKCUZvgvkUxJhsB8y912uGuxB/IOo1kdkhaYK1daWqqKbMSmsUDgTPiCDB0r564bvZCUwGRQOheuIhkUUVktRuBMgNqXsjQMSQmMJTBzwINpLN6+fauqh0wozbAFujZKtDAECsxOFaKW5XiMHlGpexmsh/n7CXGCxoLzprEIGkuuRaDA+A4DHR7UfyS1rq4u66OXPMP50rkxXA9LoMDcGlQOHAx7YDsUpZntjQX2QK1PaabzpZdEAgXmQAw2qAXxXsTNlL1m2AMi65Zmywnc4b6cjo4OtdeXP/5mO5RlLObW1tYmPTlbDS2BqX1ZuciE2peKifIMi4zSpWoJzF86wR4y4cvh2AKRS4kaBS2BHfpEuzyOQJzAhnECG8YJbBgnsGGcwIZxAhvGCWwYJ7BRRP4Gp0WPsGAfo7UAAAAASUVORK5CYII=;" parent="1" vertex="1">
          <mxGeometry x="700" y="40" width="88" height="83" as="geometry" />
        </mxCell>
        <mxCell id="DwqmfPwI5ndm6YMXPKgo-13" value="" style="endArrow=none;dashed=1;html=1;rounded=0;strokeWidth=3;strokeColor=#8A8A8A;" parent="1" edge="1">
          <mxGeometry width="50" height="50" relative="1" as="geometry">
            <mxPoint x="740" y="600" as="sourcePoint" />
            <mxPoint x="740" y="150" as="targetPoint" />
          </mxGeometry>
        </mxCell>
        <mxCell id="DwqmfPwI5ndm6YMXPKgo-16" value="" style="endArrow=none;dashed=1;html=1;rounded=0;strokeWidth=3;strokeColor=#8A8A8A;" parent="1" edge="1">
          <mxGeometry width="50" height="50" relative="1" as="geometry">
            <mxPoint x="840" y="590" as="sourcePoint" />
            <mxPoint x="840" y="260" as="targetPoint" />
          </mxGeometry>
        </mxCell>
        <mxCell id="DwqmfPwI5ndm6YMXPKgo-17" value="" style="shape=note;size=20;whiteSpace=wrap;html=1;strokeWidth=2;" parent="1" vertex="1">
          <mxGeometry x="920" y="270" width="50" height="70" as="geometry" />
        </mxCell>
        <mxCell id="DwqmfPwI5ndm6YMXPKgo-19" value="" style="endArrow=none;dashed=1;html=1;rounded=0;strokeWidth=3;strokeColor=#8A8A8A;" parent="1" edge="1">
          <mxGeometry width="50" height="50" relative="1" as="geometry">
            <mxPoint x="840" y="418" as="sourcePoint" />
            <mxPoint x="890" y="420" as="targetPoint" />
            <Array as="points">
              <mxPoint x="900" y="418" />
            </Array>
          </mxGeometry>
        </mxCell>
        <mxCell id="DwqmfPwI5ndm6YMXPKgo-20" value="" style="endArrow=none;dashed=1;html=1;rounded=0;strokeWidth=3;strokeColor=#8A8A8A;" parent="1" edge="1">
          <mxGeometry width="50" height="50" relative="1" as="geometry">
            <mxPoint x="840" y="294.5" as="sourcePoint" />
            <mxPoint x="900" y="295" as="targetPoint" />
          </mxGeometry>
        </mxCell>
        <mxCell id="DwqmfPwI5ndm6YMXPKgo-21" value="" style="endArrow=none;dashed=1;html=1;rounded=0;strokeWidth=3;strokeColor=#8A8A8A;" parent="1" edge="1">
          <mxGeometry width="50" height="50" relative="1" as="geometry">
            <mxPoint x="748" y="190" as="sourcePoint" />
            <mxPoint x="800" y="190" as="targetPoint" />
          </mxGeometry>
        </mxCell>
        <mxCell id="DwqmfPwI5ndm6YMXPKgo-22" value="" style="endArrow=none;dashed=1;html=1;rounded=0;strokeWidth=3;strokeColor=#8A8A8A;" parent="1" edge="1">
          <mxGeometry width="50" height="50" relative="1" as="geometry">
            <mxPoint x="820" y="600" as="sourcePoint" />
            <mxPoint x="850" y="600" as="targetPoint" />
          </mxGeometry>
        </mxCell>
        <mxCell id="DwqmfPwI5ndm6YMXPKgo-23" value="" style="endArrow=none;dashed=1;html=1;rounded=0;strokeWidth=3;strokeColor=#8A8A8A;" parent="1" edge="1">
          <mxGeometry width="50" height="50" relative="1" as="geometry">
            <mxPoint x="764" y="600" as="sourcePoint" />
            <mxPoint x="724" y="600" as="targetPoint" />
          </mxGeometry>
        </mxCell>
        <mxCell id="DwqmfPwI5ndm6YMXPKgo-24" value="" style="shape=image;verticalLabelPosition=bottom;labelBackgroundColor=default;verticalAlign=top;aspect=fixed;imageAspect=0;image=data:image/png,iVBORw0KGgoAAAANSUhEUgAAAFgAAABTCAYAAAAbUsD3AAAAAXNSR0IArs4c6QAAAARnQU1BAACxjwv8YQUAAAAJcEhZcwAADsMAAA7DAcdvqGQAAAcjSURBVHhe7ZzZThRbFIYXKCqCE6KoiDiCBCQyqDEm3OiFXBhfgwfgjUh8AWPihQY1DpAwozgwqeAAghODIuI559un6gT6ANW7qneT2r2/pEPbTayuv1b9a9i7yfrrH8RhjGzvp8MQTmDDOIEN4wQ2jBPYME5gwziBDeMENowT2DBOYMM4gQ1jzSzi9+/f8vPnT5mZmZGlpSX58+eP9054srOzZcuWLZKfny/btm1T/9bFCoF//folX79+lffv38vIyIjMz88rkaOyefNm2bNnj5w4cUIOHjwoO3bskKysLO/d5Ii9wERuT0+PPH78WF68eCELCwspiV4fREbY+vp6uXr1quzatUs2bdrkvRtMrAUmUonamzdvyrNnz2Rqako7wpIBaygvL5fLly/LxYsXZfv27d47wcQ2yRG5k5OT0tbWJr29vTI9PW1EXOCOmJiYkKdPnyo70iG2AhO9r169klu3bsn379+9V83B8bhDdO0ntgJ3dnbKgwcPUu65a4GThkmcsRMYa3j+/Ln09fXJ69ev1YmbsoZEOJZuytJKctSZ/mOj+PHjh9y9e1e6u7tVgksXW7dulWPHjklzc7Ps3bvXezUYLYE5IaJmfHxc3Za6VzMq3KKzs7Py8OFD9TNdkQtGBSZz3rlzR92WiIzvpVtc4JhcWJoKxLZCYOyAEqWlpUUV8nNzc947mUVYgQOTHOWJbwuZKm4UAgUmqXz48EG7wHb8S6DAeB6lkSMcSdXB6SjkbSV2jUbccAIbxglsmMA6eGxsTFpbW+XevXvy5csX79VwcCh/GYa6UmdwvdHweY8cOSJNTU1qlSNZjAvMf0/HxZoWg2rWt3bu3KkeCB0XcnJyZP/+/dLY2Ch5eXneq8GkJYKJ1OrqarXsUlVVpZZdED3MIuJGwvIRkazTohsVmA9TXFwsly5dkuPHj8uhQ4dk9+7dsYrcqBgTmKuMqKxhNTQ0KEtgrvHp0yf1oENcXFxM68DGFAQM9nH06FHJzc1dcU7GBMZrr1y5ItevX1eWwARseHhYzXGZyrGehuBxs4nVIHhqamrk2rVr6o4l3/gYOzsOeObMGbXkTaTevn1bbty4oS6UP9uwIXqBzS6sD96/f18Nx5aTcoG5IfxlbsoaBuNPnjyR/v5+effunfoA/tqWLQJzzkwaWRRNnNukXGAS2+HDh5W43Drfvn2TR48eqXGnzRM5gopSLjFoUiowVxLvpRxjKO3vXWA/AbeRzVAbE1iIvJyURzCee+HCBZXYPn78KAMDA8qDA3Jp7CGgzp49uyLBQUoFpsalVGGjHFZBMmNLU7rXz9INd+2BAwdUnZ9Y46dUYA5CcuOAJDdKPB62Ry/nTc7BJhLLzpQIjIBEKDVgRUWFej46OqrEpaGwFc6bB4uhbHFdjZRFMJ6LyWMP8PLlS3nz5o16bisEEpZA9JaUlHivriQlAnOgsrIydRCeUw8i7ufPn73fsBOGP0QuFrHWltaUCMyBsAYiGEsYHBxUCc52eyCRMyXct2+fCqzViCwwo0jMnSvJwIOtpOzZZfZgMwiKwIxfCwsLvVf/T2SB6dbOnz+vpvw0FtgCwxzbN6lQ7xNUiMsEbS0iCcxtQu3rNxaMIYeGhlQU01zYTEFBgVRWVqqSdL2JYCSBuXIYPAmO5wxz6Nz8ss1WEBTfxR6wifWIJHBRUZGcPHnyv683UfeyQdD2jSqISr7BIoJWZyIJTFvMbQIM05mYbeTm7HSBsKzWJENogfFc6l66NyByiWCi11Z78Ds3xKV7S4ZQAiMg3QvDDbyXioHOjX3ENoP3YofU+5x7MoQSmAOxHOQ3FnRt7Hy3feaL95LQGQckjiXXQltgGgtqX3yITIqo7e3t6qfNlQMgMDPf9RqLRLQFpms7ffq0EpdIZu7ANy0ZT9oMgUXeOXXqlAqwZNEWmI7t3LlzyouIWmpfLML26oGGAktcb7CzGloCE7EsjdTV1SmBqRr8xsJ2qHvZiqC7K0lLYMydxgKbQFTqXvYD4L02+y/nhsBMDI0JjKCUZvgvkUxJhsB8y912uGuxB/IOo1kdkhaYK1daWqqKbMSmsUDgTPiCDB0r564bvZCUwGRQOheuIhkUUVktRuBMgNqXsjQMSQmMJTBzwINpLN6+fauqh0wozbAFujZKtDAECsxOFaKW5XiMHlGpexmsh/n7CXGCxoLzprEIGkuuRaDA+A4DHR7UfyS1rq4u66OXPMP50rkxXA9LoMDcGlQOHAx7YDsUpZntjQX2QK1PaabzpZdEAgXmQAw2qAXxXsTNlL1m2AMi65Zmywnc4b6cjo4OtdeXP/5mO5RlLObW1tYmPTlbDS2BqX1ZuciE2peKifIMi4zSpWoJzF86wR4y4cvh2AKRS4kaBS2BHfpEuzyOQJzAhnECG8YJbBgnsGGcwIZxAhvGCWwYJ7BRRP4Gp0WPsGAfo7UAAAAASUVORK5CYII=;" parent="1" vertex="1">
          <mxGeometry x="806" y="140" width="88" height="83" as="geometry" />
        </mxCell>
        <mxCell id="DwqmfPwI5ndm6YMXPKgo-30" value="" style="endArrow=none;dashed=1;html=1;rounded=0;strokeWidth=3;strokeColor=#8A8A8A;" parent="1" edge="1">
          <mxGeometry width="50" height="50" relative="1" as="geometry">
            <mxPoint x="930" y="600" as="sourcePoint" />
            <mxPoint x="960" y="600" as="targetPoint" />
          </mxGeometry>
        </mxCell>
        <mxCell id="DwqmfPwI5ndm6YMXPKgo-33" value="" style="swimlane;startSize=0;fillColor=none;" parent="1" vertex="1">
          <mxGeometry x="210" y="30" width="480" height="600" as="geometry" />
        </mxCell>
        <mxCell id="ErBYjf3i4Nye9MJlUp7t-5" value="&lt;b&gt;&lt;font style=&quot;font-size: 16px;&quot;&gt;Component Pool&lt;/font&gt;&lt;/b&gt;" style="text;strokeColor=none;fillColor=none;align=left;verticalAlign=middle;spacingLeft=4;spacingRight=4;overflow=hidden;points=[[0,0.5],[1,0.5]];portConstraint=eastwest;rotatable=0;whiteSpace=wrap;html=1;" parent="DwqmfPwI5ndm6YMXPKgo-33" vertex="1">
          <mxGeometry x="10" y="90" width="170" height="30" as="geometry" />
        </mxCell>
        <mxCell id="ErBYjf3i4Nye9MJlUp7t-6" value="&lt;b&gt;&lt;font style=&quot;font-size: 16px;&quot;&gt;Component1&lt;/font&gt;&lt;/b&gt;" style="text;strokeColor=none;fillColor=none;align=left;verticalAlign=middle;spacingLeft=4;spacingRight=4;overflow=hidden;points=[[0,0.5],[1,0.5]];portConstraint=eastwest;rotatable=0;whiteSpace=wrap;html=1;" parent="DwqmfPwI5ndm6YMXPKgo-33" vertex="1">
          <mxGeometry x="119" y="193" width="170" height="30" as="geometry" />
        </mxCell>
        <mxCell id="DwqmfPwI5ndm6YMXPKgo-3" value="&lt;b&gt;&lt;font style=&quot;font-size: 16px;&quot;&gt;Component1Test&lt;br&gt;&lt;/font&gt;&lt;/b&gt;" style="text;strokeColor=none;fillColor=none;align=left;verticalAlign=middle;spacingLeft=4;spacingRight=4;overflow=hidden;points=[[0,0.5],[1,0.5]];portConstraint=eastwest;rotatable=0;whiteSpace=wrap;html=1;" parent="DwqmfPwI5ndm6YMXPKgo-33" vertex="1">
          <mxGeometry x="230" y="430" width="170" height="30" as="geometry" />
        </mxCell>
        <mxCell id="DwqmfPwI5ndm6YMXPKgo-10" value="&lt;span style=&quot;font-size: 16px;&quot;&gt;&lt;b&gt;File1Test&lt;/b&gt;&lt;/span&gt;" style="text;strokeColor=none;fillColor=none;align=left;verticalAlign=middle;spacingLeft=4;spacingRight=4;overflow=hidden;points=[[0,0.5],[1,0.5]];portConstraint=eastwest;rotatable=0;whiteSpace=wrap;html=1;" parent="DwqmfPwI5ndm6YMXPKgo-33" vertex="1">
          <mxGeometry x="330" y="550" width="95" height="30" as="geometry" />
        </mxCell>
        <mxCell id="DwqmfPwI5ndm6YMXPKgo-1" value="" style="shape=image;verticalLabelPosition=bottom;labelBackgroundColor=default;verticalAlign=top;aspect=fixed;imageAspect=0;image=data:image/png,iVBORw0KGgoAAAANSUhEUgAAAFgAAABTCAYAAAAbUsD3AAAAAXNSR0IArs4c6QAAAARnQU1BAACxjwv8YQUAAAAJcEhZcwAADsMAAA7DAcdvqGQAAAcjSURBVHhe7ZzZThRbFIYXKCqCE6KoiDiCBCQyqDEm3OiFXBhfgwfgjUh8AWPihQY1DpAwozgwqeAAghODIuI559un6gT6ANW7qneT2r2/pEPbTayuv1b9a9i7yfrrH8RhjGzvp8MQTmDDOIEN4wQ2jBPYME5gwziBDeMENowT2DBOYMM4gQ1jzSzi9+/f8vPnT5mZmZGlpSX58+eP9054srOzZcuWLZKfny/btm1T/9bFCoF//folX79+lffv38vIyIjMz88rkaOyefNm2bNnj5w4cUIOHjwoO3bskKysLO/d5Ii9wERuT0+PPH78WF68eCELCwspiV4fREbY+vp6uXr1quzatUs2bdrkvRtMrAUmUonamzdvyrNnz2Rqako7wpIBaygvL5fLly/LxYsXZfv27d47wcQ2yRG5k5OT0tbWJr29vTI9PW1EXOCOmJiYkKdPnyo70iG2AhO9r169klu3bsn379+9V83B8bhDdO0ntgJ3dnbKgwcPUu65a4GThkmcsRMYa3j+/Ln09fXJ69ev1YmbsoZEOJZuytJKctSZ/mOj+PHjh9y9e1e6u7tVgksXW7dulWPHjklzc7Ps3bvXezUYLYE5IaJmfHxc3Za6VzMq3KKzs7Py8OFD9TNdkQtGBSZz3rlzR92WiIzvpVtc4JhcWJoKxLZCYOyAEqWlpUUV8nNzc947mUVYgQOTHOWJbwuZKm4UAgUmqXz48EG7wHb8S6DAeB6lkSMcSdXB6SjkbSV2jUbccAIbxglsmMA6eGxsTFpbW+XevXvy5csX79VwcCh/GYa6UmdwvdHweY8cOSJNTU1qlSNZjAvMf0/HxZoWg2rWt3bu3KkeCB0XcnJyZP/+/dLY2Ch5eXneq8GkJYKJ1OrqarXsUlVVpZZdED3MIuJGwvIRkazTohsVmA9TXFwsly5dkuPHj8uhQ4dk9+7dsYrcqBgTmKuMqKxhNTQ0KEtgrvHp0yf1oENcXFxM68DGFAQM9nH06FHJzc1dcU7GBMZrr1y5ItevX1eWwARseHhYzXGZyrGehuBxs4nVIHhqamrk2rVr6o4l3/gYOzsOeObMGbXkTaTevn1bbty4oS6UP9uwIXqBzS6sD96/f18Nx5aTcoG5IfxlbsoaBuNPnjyR/v5+effunfoA/tqWLQJzzkwaWRRNnNukXGAS2+HDh5W43Drfvn2TR48eqXGnzRM5gopSLjFoUiowVxLvpRxjKO3vXWA/AbeRzVAbE1iIvJyURzCee+HCBZXYPn78KAMDA8qDA3Jp7CGgzp49uyLBQUoFpsalVGGjHFZBMmNLU7rXz9INd+2BAwdUnZ9Y46dUYA5CcuOAJDdKPB62Ry/nTc7BJhLLzpQIjIBEKDVgRUWFej46OqrEpaGwFc6bB4uhbHFdjZRFMJ6LyWMP8PLlS3nz5o16bisEEpZA9JaUlHivriQlAnOgsrIydRCeUw8i7ufPn73fsBOGP0QuFrHWltaUCMyBsAYiGEsYHBxUCc52eyCRMyXct2+fCqzViCwwo0jMnSvJwIOtpOzZZfZgMwiKwIxfCwsLvVf/T2SB6dbOnz+vpvw0FtgCwxzbN6lQ7xNUiMsEbS0iCcxtQu3rNxaMIYeGhlQU01zYTEFBgVRWVqqSdL2JYCSBuXIYPAmO5wxz6Nz8ss1WEBTfxR6wifWIJHBRUZGcPHnyv683UfeyQdD2jSqISr7BIoJWZyIJTFvMbQIM05mYbeTm7HSBsKzWJENogfFc6l66NyByiWCi11Z78Ds3xKV7S4ZQAiMg3QvDDbyXioHOjX3ENoP3YofU+5x7MoQSmAOxHOQ3FnRt7Hy3feaL95LQGQckjiXXQltgGgtqX3yITIqo7e3t6qfNlQMgMDPf9RqLRLQFpms7ffq0EpdIZu7ANy0ZT9oMgUXeOXXqlAqwZNEWmI7t3LlzyouIWmpfLML26oGGAktcb7CzGloCE7EsjdTV1SmBqRr8xsJ2qHvZiqC7K0lLYMydxgKbQFTqXvYD4L02+y/nhsBMDI0JjKCUZvgvkUxJhsB8y912uGuxB/IOo1kdkhaYK1daWqqKbMSmsUDgTPiCDB0r564bvZCUwGRQOheuIhkUUVktRuBMgNqXsjQMSQmMJTBzwINpLN6+fauqh0wozbAFujZKtDAECsxOFaKW5XiMHlGpexmsh/n7CXGCxoLzprEIGkuuRaDA+A4DHR7UfyS1rq4u66OXPMP50rkxXA9LoMDcGlQOHAx7YDsUpZntjQX2QK1PaabzpZdEAgXmQAw2qAXxXsTNlL1m2AMi65Zmywnc4b6cjo4OtdeXP/5mO5RlLObW1tYmPTlbDS2BqX1ZuciE2peKifIMi4zSpWoJzF86wR4y4cvh2AKRS4kaBS2BHfpEuzyOQJzAhnECG8YJbBgnsGGcwIZxAhvGCWwYJ7BRRP4Gp0WPsGAfo7UAAAAASUVORK5CYII=;" parent="DwqmfPwI5ndm6YMXPKgo-33" vertex="1">
          <mxGeometry x="220" y="347" width="88" height="83" as="geometry" />
        </mxCell>
        <mxCell id="DwqmfPwI5ndm6YMXPKgo-34" value="" style="swimlane;startSize=0;fillColor=none;" parent="1" vertex="1">
          <mxGeometry x="690" y="30" width="520" height="600" as="geometry" />
        </mxCell>
        <mxCell id="DwqmfPwI5ndm6YMXPKgo-14" value="&lt;b&gt;&lt;font style=&quot;font-size: 16px;&quot;&gt;Component Pool&lt;/font&gt;&lt;/b&gt;" style="text;strokeColor=none;fillColor=none;align=left;verticalAlign=middle;spacingLeft=4;spacingRight=4;overflow=hidden;points=[[0,0.5],[1,0.5]];portConstraint=eastwest;rotatable=0;whiteSpace=wrap;html=1;" parent="DwqmfPwI5ndm6YMXPKgo-34" vertex="1">
          <mxGeometry x="10" y="90" width="170" height="30" as="geometry" />
        </mxCell>
        <mxCell id="DwqmfPwI5ndm6YMXPKgo-15" value="&lt;span style=&quot;font-size: 16px;&quot;&gt;&lt;b&gt;ProductModel&lt;/b&gt;&lt;/span&gt;" style="text;strokeColor=none;fillColor=none;align=left;verticalAlign=middle;spacingLeft=4;spacingRight=4;overflow=hidden;points=[[0,0.5],[1,0.5]];portConstraint=eastwest;rotatable=0;whiteSpace=wrap;html=1;" parent="DwqmfPwI5ndm6YMXPKgo-34" vertex="1">
          <mxGeometry x="110" y="193" width="170" height="30" as="geometry" />
        </mxCell>
        <mxCell id="DwqmfPwI5ndm6YMXPKgo-26" value="&lt;b&gt;&lt;font style=&quot;font-size: 16px;&quot;&gt;ProductModelTest&lt;br&gt;&lt;/font&gt;&lt;/b&gt;" style="text;strokeColor=none;fillColor=none;align=left;verticalAlign=middle;spacingLeft=4;spacingRight=4;overflow=hidden;points=[[0,0.5],[1,0.5]];portConstraint=eastwest;rotatable=0;whiteSpace=wrap;html=1;" parent="DwqmfPwI5ndm6YMXPKgo-34" vertex="1">
          <mxGeometry x="220" y="430" width="170" height="30" as="geometry" />
        </mxCell>
        <mxCell id="DwqmfPwI5ndm6YMXPKgo-31" value="&lt;b style=&quot;border-color: var(--border-color); font-size: 16px;&quot;&gt;ProductTest.java&lt;/b&gt;" style="text;strokeColor=none;fillColor=none;align=left;verticalAlign=middle;spacingLeft=4;spacingRight=4;overflow=hidden;points=[[0,0.5],[1,0.5]];portConstraint=eastwest;rotatable=0;whiteSpace=wrap;html=1;" parent="DwqmfPwI5ndm6YMXPKgo-34" vertex="1">
          <mxGeometry x="330" y="540" width="145" height="30" as="geometry" />
        </mxCell>
        <mxCell id="DwqmfPwI5ndm6YMXPKgo-28" value="" style="endArrow=none;dashed=1;html=1;rounded=0;strokeWidth=3;strokeColor=#8A8A8A;" parent="DwqmfPwI5ndm6YMXPKgo-34" edge="1">
          <mxGeometry width="50" height="50" relative="1" as="geometry">
            <mxPoint x="260" y="499.99999999999994" as="sourcePoint" />
            <mxPoint x="320" y="499.99999999999994" as="targetPoint" />
          </mxGeometry>
        </mxCell>
        <mxCell id="DwqmfPwI5ndm6YMXPKgo-27" value="" style="shape=note;size=21;whiteSpace=wrap;html=1;strokeWidth=2;" parent="DwqmfPwI5ndm6YMXPKgo-34" vertex="1">
          <mxGeometry x="330" y="470" width="50" height="70" as="geometry" />
        </mxCell>
        <mxCell id="DwqmfPwI5ndm6YMXPKgo-39" value="" style="endArrow=none;dashed=1;html=1;rounded=0;strokeWidth=3;strokeColor=#8A8A8A;" parent="DwqmfPwI5ndm6YMXPKgo-34" edge="1">
          <mxGeometry width="50" height="50" relative="1" as="geometry">
            <mxPoint x="240" y="560" as="sourcePoint" />
            <mxPoint x="240" y="460" as="targetPoint" />
          </mxGeometry>
        </mxCell>
        <mxCell id="DwqmfPwI5ndm6YMXPKgo-25" value="" style="shape=image;verticalLabelPosition=bottom;labelBackgroundColor=default;verticalAlign=top;aspect=fixed;imageAspect=0;image=data:image/png,iVBORw0KGgoAAAANSUhEUgAAAFgAAABTCAYAAAAbUsD3AAAAAXNSR0IArs4c6QAAAARnQU1BAACxjwv8YQUAAAAJcEhZcwAADsMAAA7DAcdvqGQAAAcjSURBVHhe7ZzZThRbFIYXKCqCE6KoiDiCBCQyqDEm3OiFXBhfgwfgjUh8AWPihQY1DpAwozgwqeAAghODIuI559un6gT6ANW7qneT2r2/pEPbTayuv1b9a9i7yfrrH8RhjGzvp8MQTmDDOIEN4wQ2jBPYME5gwziBDeMENowT2DBOYMM4gQ1jzSzi9+/f8vPnT5mZmZGlpSX58+eP9054srOzZcuWLZKfny/btm1T/9bFCoF//folX79+lffv38vIyIjMz88rkaOyefNm2bNnj5w4cUIOHjwoO3bskKysLO/d5Ii9wERuT0+PPH78WF68eCELCwspiV4fREbY+vp6uXr1quzatUs2bdrkvRtMrAUmUonamzdvyrNnz2Rqako7wpIBaygvL5fLly/LxYsXZfv27d47wcQ2yRG5k5OT0tbWJr29vTI9PW1EXOCOmJiYkKdPnyo70iG2AhO9r169klu3bsn379+9V83B8bhDdO0ntgJ3dnbKgwcPUu65a4GThkmcsRMYa3j+/Ln09fXJ69ev1YmbsoZEOJZuytJKctSZ/mOj+PHjh9y9e1e6u7tVgksXW7dulWPHjklzc7Ps3bvXezUYLYE5IaJmfHxc3Za6VzMq3KKzs7Py8OFD9TNdkQtGBSZz3rlzR92WiIzvpVtc4JhcWJoKxLZCYOyAEqWlpUUV8nNzc947mUVYgQOTHOWJbwuZKm4UAgUmqXz48EG7wHb8S6DAeB6lkSMcSdXB6SjkbSV2jUbccAIbxglsmMA6eGxsTFpbW+XevXvy5csX79VwcCh/GYa6UmdwvdHweY8cOSJNTU1qlSNZjAvMf0/HxZoWg2rWt3bu3KkeCB0XcnJyZP/+/dLY2Ch5eXneq8GkJYKJ1OrqarXsUlVVpZZdED3MIuJGwvIRkazTohsVmA9TXFwsly5dkuPHj8uhQ4dk9+7dsYrcqBgTmKuMqKxhNTQ0KEtgrvHp0yf1oENcXFxM68DGFAQM9nH06FHJzc1dcU7GBMZrr1y5ItevX1eWwARseHhYzXGZyrGehuBxs4nVIHhqamrk2rVr6o4l3/gYOzsOeObMGbXkTaTevn1bbty4oS6UP9uwIXqBzS6sD96/f18Nx5aTcoG5IfxlbsoaBuNPnjyR/v5+effunfoA/tqWLQJzzkwaWRRNnNukXGAS2+HDh5W43Drfvn2TR48eqXGnzRM5gopSLjFoUiowVxLvpRxjKO3vXWA/AbeRzVAbE1iIvJyURzCee+HCBZXYPn78KAMDA8qDA3Jp7CGgzp49uyLBQUoFpsalVGGjHFZBMmNLU7rXz9INd+2BAwdUnZ9Y46dUYA5CcuOAJDdKPB62Ry/nTc7BJhLLzpQIjIBEKDVgRUWFej46OqrEpaGwFc6bB4uhbHFdjZRFMJ6LyWMP8PLlS3nz5o16bisEEpZA9JaUlHivriQlAnOgsrIydRCeUw8i7ufPn73fsBOGP0QuFrHWltaUCMyBsAYiGEsYHBxUCc52eyCRMyXct2+fCqzViCwwo0jMnSvJwIOtpOzZZfZgMwiKwIxfCwsLvVf/T2SB6dbOnz+vpvw0FtgCwxzbN6lQ7xNUiMsEbS0iCcxtQu3rNxaMIYeGhlQU01zYTEFBgVRWVqqSdL2JYCSBuXIYPAmO5wxz6Nz8ss1WEBTfxR6wifWIJHBRUZGcPHnyv683UfeyQdD2jSqISr7BIoJWZyIJTFvMbQIM05mYbeTm7HSBsKzWJENogfFc6l66NyByiWCi11Z78Ds3xKV7S4ZQAiMg3QvDDbyXioHOjX3ENoP3YofU+5x7MoQSmAOxHOQ3FnRt7Hy3feaL95LQGQckjiXXQltgGgtqX3yITIqo7e3t6qfNlQMgMDPf9RqLRLQFpms7ffq0EpdIZu7ANy0ZT9oMgUXeOXXqlAqwZNEWmI7t3LlzyouIWmpfLML26oGGAktcb7CzGloCE7EsjdTV1SmBqRr8xsJ2qHvZiqC7K0lLYMydxgKbQFTqXvYD4L02+y/nhsBMDI0JjKCUZvgvkUxJhsB8y912uGuxB/IOo1kdkhaYK1daWqqKbMSmsUDgTPiCDB0r564bvZCUwGRQOheuIhkUUVktRuBMgNqXsjQMSQmMJTBzwINpLN6+fauqh0wozbAFujZKtDAECsxOFaKW5XiMHlGpexmsh/n7CXGCxoLzprEIGkuuRaDA+A4DHR7UfyS1rq4u66OXPMP50rkxXA9LoMDcGlQOHAx7YDsUpZntjQX2QK1PaabzpZdEAgXmQAw2qAXxXsTNlL1m2AMi65Zmywnc4b6cjo4OtdeXP/5mO5RlLObW1tYmPTlbDS2BqX1ZuciE2peKifIMi4zSpWoJzF86wR4y4cvh2AKRS4kaBS2BHfpEuzyOQJzAhnECG8YJbBgnsGGcwIZxAhvGCWwYJ7BRRP4Gp0WPsGAfo7UAAAAASUVORK5CYII=;" parent="DwqmfPwI5ndm6YMXPKgo-34" vertex="1">
          <mxGeometry x="211" y="347" width="88" height="83" as="geometry" />
        </mxCell>
        <mxCell id="DwqmfPwI5ndm6YMXPKgo-18" value="&lt;span style=&quot;font-size: 16px;&quot;&gt;&lt;b&gt;Product.java&lt;/b&gt;&lt;/span&gt;" style="text;strokeColor=none;fillColor=none;align=left;verticalAlign=middle;spacingLeft=4;spacingRight=4;overflow=hidden;points=[[0,0.5],[1,0.5]];portConstraint=eastwest;rotatable=0;whiteSpace=wrap;html=1;" parent="DwqmfPwI5ndm6YMXPKgo-34" vertex="1">
          <mxGeometry x="230" y="317" width="110" height="30" as="geometry" />
        </mxCell>
        <mxCell id="DwqmfPwI5ndm6YMXPKgo-38" value="" style="endArrow=none;dashed=1;html=1;rounded=0;strokeWidth=3;strokeColor=#8A8A8A;" parent="1" edge="1">
          <mxGeometry width="50" height="50" relative="1" as="geometry">
            <mxPoint x="460" y="590" as="sourcePoint" />
            <mxPoint x="460" y="490" as="targetPoint" />
          </mxGeometry>
        </mxCell>
      </root>
    </mxGraphModel>
  </diagram>
</mxfile>
